<?xml version="1.0" encoding="utf-8"?><!-- Uploaded to: SVG Repo, www.svgrepo.com, Generator: SVG Repo Mixer Tools -->
<svg version="1.1" id="designs" xmlns="http://www.w3.org/2000/svg" xmlns:xlink="http://www.w3.org/1999/xlink" 
	 width="800px" height="800px" viewBox="0 0 32 32" xml:space="preserve">
<style type="text/css">
	.sketchy_een{fill:#111918;}
</style>
<path class="sketchy_een" d="M25.576,11.092c-0.067-0.894-0.216-1.816-0.547-2.654c-0.17-0.435-0.403-0.834-0.662-1.221
	c-0.274-0.409-0.586-0.806-0.894-1.191c-0.362-0.454-0.733-0.885-1.174-1.263c-0.215-0.185-0.422-0.377-0.636-0.56
	c-0.251-0.215-0.523-0.405-0.792-0.597c0.02-0.034,0.041-0.068,0.062-0.101c0.231-0.384,0.088-0.903-0.295-1.127
	c-0.128-0.075-0.269-0.11-0.409-0.11c-0.285,0-0.565,0.148-0.719,0.407C19.5,2.693,19.49,2.711,19.479,2.729
	c-0.049-0.024-0.094-0.056-0.144-0.078c-0.306-0.134-0.616-0.231-0.939-0.325c-0.3-0.086-0.59-0.209-0.892-0.295
	C17.429,2.01,17.352,2,17.277,2c-0.385,0-0.748,0.263-0.854,0.646c-0.062,0.228-0.03,0.476,0.09,0.677
	c0.125,0.216,0.302,0.315,0.524,0.405c0.256,0.103,0.509,0.211,0.767,0.306c0.221,0.081,0.445,0.142,0.666,0.221
	c0.031,0.015,0.058,0.036,0.088,0.051c-0.168,0.29-0.338,0.58-0.508,0.87c-0.351-0.157-0.697-0.323-1.029-0.523
	c-0.177-0.106-0.341-0.237-0.532-0.321c-0.28-0.123-0.565-0.23-0.862-0.31c-0.491-0.133-1.017-0.168-1.525-0.194
	c-0.03-0.002-0.061-0.002-0.091-0.002c-0.182,0-0.368,0.026-0.549,0.043c-0.334,0.034-0.666,0.078-0.997,0.134
	c-0.435,0.073-0.872,0.2-1.282,0.355c-0.485,0.183-0.969,0.401-1.387,0.711c-0.422,0.312-0.849,0.62-1.198,1.013
	C8.245,6.482,7.941,6.96,7.673,7.419C7.456,7.79,7.269,8.186,7.094,8.579c-0.207,0.47-0.371,0.972-0.472,1.476
	c-0.106,0.532-0.198,1.071-0.254,1.611c-0.047,0.452-0.019,0.905,0.021,1.355c0.045,0.496,0.136,0.982,0.254,1.467
	c0.095,0.39,0.203,0.782,0.345,1.159c0.351,0.928,0.911,1.814,1.687,2.441c0.291,0.237,0.588,0.468,0.885,0.698
	c-0.168,0.302-0.333,0.606-0.499,0.91c-0.26-0.231-0.514-0.468-0.766-0.706c-0.34-0.323-0.879-0.338-1.219,0
	c-0.323,0.325-0.341,0.898,0,1.219c0.356,0.332,0.711,0.666,1.09,0.97c0.026,0.021,0.056,0.038,0.082,0.058
	c-0.141,0.276-0.288,0.549-0.424,0.827c-0.097,0.2-0.142,0.401-0.08,0.621c0.056,0.202,0.19,0.377,0.371,0.482
	c0.185,0.11,0.412,0.14,0.621,0.082c0.179-0.05,0.405-0.19,0.482-0.371c0.107-0.252,0.235-0.496,0.367-0.739
	c0.328,0.179,0.671,0.325,1.021,0.458c0.355,0.134,0.704,0.282,1.06,0.411c0.177,0.065,0.355,0.127,0.541,0.164
	c0.259,0.054,0.528,0.08,0.793,0.106c0.394,0.037,0.793,0.034,1.189,0.035c0.052,0,0.103-0.011,0.154-0.011
	c0.025,0.596,0.055,1.193,0.092,1.788c-0.291,0.006-0.582,0.013-0.872,0.02c-0.791,0.019-1.586,0.013-2.378,0.002
	c-0.175-0.004-0.353-0.006-0.53-0.007c-0.164-0.001-0.31,0.063-0.437,0.152c-0.185,0.023-0.363,0.094-0.494,0.227
	c-0.142,0.14-0.271,0.384-0.246,0.592c0.058,0.472,0.082,0.948,0.118,1.422c0.019,0.265,0.037,0.532,0.056,0.797
	c0.01,0.152,0.025,0.305,0.027,0.459c-0.026,0.077-0.04,0.158-0.04,0.241c0,0.158,0.057,0.303,0.143,0.432
	c0.088,0.325,0.377,0.576,0.726,0.574c0.821,0,1.64-0.017,2.462-0.049c0.263-0.009,0.528,0,0.791-0.009
	c0.3-0.009,0.603-0.024,0.903-0.035c0.7-0.024,1.4-0.019,2.101-0.011c0.313,0.004,0.627,0.011,0.941,0.015
	c0.284,0.004,0.567,0.03,0.851,0.034c0.353,0.002,0.705-0.002,1.058-0.026c0.248-0.019,0.495-0.039,0.743-0.035
	c0.414,0.008,0.761-0.351,0.761-0.76c0-0.058-0.02-0.114-0.035-0.171c0.043-0.063,0.079-0.13,0.092-0.214
	c0.019-0.121,0.034-0.177,0.022-0.278c-0.004-0.05-0.009-0.101-0.015-0.151c-0.022-0.194-0.03-0.39-0.024-0.584
	c0.015-0.573,0.062-1.142,0.035-1.713c-0.015-0.36-0.242-0.662-0.569-0.77c-0.13-0.082-0.28-0.13-0.447-0.146
	c-0.091-0.007-0.194,0.021-0.292,0.044c-0.31,0.018-0.626-0.005-0.934-0.018c-0.347-0.015-0.692-0.026-1.039-0.037
	c-0.34-0.011-0.679-0.035-1.019-0.039c-0.062-0.001-0.124-0.001-0.186-0.001c-0.223,0-0.445,0.006-0.667,0.011
	c0-0.242,0.005-0.483,0.004-0.724c-0.001-0.413-0.014-0.824-0.026-1.235c0.233-0.05,0.469-0.088,0.699-0.156
	c0.851-0.254,1.713-0.453,2.506-0.862c0.394-0.205,0.748-0.496,1.114-0.746c0.345-0.235,0.702-0.457,1.045-0.698
	c0.39-0.274,0.754-0.593,1.066-0.956c0.336-0.388,0.625-0.827,0.922-1.247c0.457-0.648,0.864-1.325,1.235-2.025
	c0.203-0.383,0.388-0.771,0.558-1.17c0.11-0.261,0.22-0.519,0.291-0.795c0.073-0.278,0.106-0.564,0.142-0.847
	C25.707,12.759,25.641,11.926,25.576,11.092z M17.567,26.579c0.345,0.019,0.69,0.022,1.036,0.03
	c0.339,0.011,0.677,0.035,1.015,0.047c0.005,0.04,0.006,0.081,0.011,0.12c0.026,0.299,0.029,0.602,0.045,0.903
	c0.009,0.191,0.004,0.381-0.014,0.57c-0.012,0.06-0.019,0.122-0.028,0.182c-0.053,0.003-0.106,0.007-0.159,0.011
	c-0.235,0.019-0.47,0.03-0.705,0.028c-0.28-0.002-0.56,0.009-0.838,0.009c-0.319-0.002-0.638-0.002-0.956,0.006
	c-0.698,0.017-1.396,0.017-2.092,0.05c-0.327,0.015-0.651,0.015-0.978,0.021c-0.231,0.006-0.465,0.017-0.698,0.009
	c-0.674-0.024-1.347-0.049-2.021-0.07c-0.015-0.315-0.017-0.632-0.018-0.943c-0.001-0.294,0.005-0.586,0.005-0.878
	c0.675-0.021,1.348-0.059,2.022-0.111c0.771-0.06,1.542-0.08,2.314-0.058C16.195,26.527,16.882,26.542,17.567,26.579z M8.497,14.265
	c-0.1-0.36-0.191-0.723-0.257-1.09c-0.062-0.6-0.07-1.197-0.004-1.795c0.109-0.733,0.255-1.455,0.523-2.149
	c0.13-0.289,0.269-0.574,0.416-0.854c0.178-0.342,0.395-0.661,0.619-0.975c0.175-0.206,0.362-0.388,0.568-0.56
	c0.364-0.266,0.736-0.5,1.144-0.69c0.532-0.204,1.077-0.342,1.639-0.432c0.313-0.036,0.624-0.064,0.939-0.074
	c0.281-0.01,0.568,0.017,0.849,0.049c0.279,0.044,0.559,0.102,0.827,0.187c0.249,0.123,0.486,0.274,0.733,0.402
	c0.349,0.181,0.704,0.347,1.065,0.501c0.145,0.062,0.278,0.11,0.418,0.125c0.047,0.04,0.099,0.074,0.157,0.102
	c0.069,0.034,0.13,0.069,0.191,0.109c0.25,0.208,0.49,0.428,0.76,0.609c0.206,0.137,0.422,0.26,0.627,0.397
	c0.054,0.049,0.104,0.1,0.153,0.153c0.174,0.271,0.322,0.561,0.478,0.844c0.161,0.297,0.32,0.595,0.464,0.902
	c0.11,0.3,0.19,0.61,0.247,0.926c0.068,0.681,0.034,1.364-0.037,2.043c-0.101,0.654-0.271,1.296-0.51,1.914
	c-0.238,0.507-0.544,0.97-0.877,1.419c-0.375,0.462-0.785,0.882-1.246,1.258c-0.419,0.301-0.857,0.563-1.323,0.782
	c-0.274,0.106-0.549,0.189-0.839,0.242c-0.486,0.05-0.977,0.059-1.462,0.025c-0.278-0.019-0.554-0.058-0.829-0.091
	c-0.22-0.025-0.441-0.043-0.661-0.068c-0.462-0.069-0.909-0.158-1.346-0.321c-0.354-0.164-0.703-0.36-1.016-0.59
	c-0.242-0.191-0.484-0.383-0.716-0.585c-0.262-0.228-0.523-0.441-0.748-0.703c-0.252-0.345-0.468-0.701-0.65-1.089
	C8.673,14.887,8.583,14.578,8.497,14.265z M23.799,13.409c-0.062,0.363-0.155,0.711-0.291,1.054
	c-0.134,0.308-0.275,0.608-0.438,0.904c-0.179,0.327-0.373,0.644-0.556,0.969c-0.377,0.667-0.833,1.277-1.297,1.884
	c-0.24,0.297-0.517,0.568-0.812,0.812c-0.384,0.288-0.782,0.56-1.174,0.839c-0.237,0.168-0.47,0.34-0.719,0.493
	c-0.183,0.114-0.376,0.21-0.572,0.298c-0.473,0.188-0.961,0.326-1.446,0.482c-0.467,0.149-0.941,0.281-1.427,0.36
	c-0.732,0.076-1.474,0.094-2.207,0.017c-0.364-0.063-0.709-0.174-1.058-0.301c-0.207-0.076-0.409-0.168-0.614-0.248
	c-0.151-0.06-0.303-0.117-0.455-0.176c-0.104-0.05-0.199-0.116-0.3-0.171c0.182-0.324,0.363-0.648,0.546-0.971
	c0.407,0.187,0.825,0.332,1.272,0.394c0.547,0.075,1.094,0.131,1.644,0.172c0.487,0.035,0.972,0.084,1.459,0.062
	c0.509-0.022,1.021-0.063,1.517-0.175c0.511-0.114,0.991-0.362,1.458-0.595c0.474-0.235,0.911-0.526,1.325-0.857
	c0.743-0.59,1.349-1.318,1.887-2.096c0.571-0.829,0.875-1.807,1.056-2.788c0.091-0.498,0.142-1.008,0.164-1.513
	c0.019-0.429,0.026-0.849-0.021-1.278c-0.052-0.474-0.131-0.969-0.306-1.416c-0.181-0.463-0.411-0.9-0.64-1.338
	c-0.246-0.47-0.476-0.961-0.868-1.332c-0.332-0.315-0.755-0.492-1.125-0.756c-0.075-0.06-0.15-0.12-0.226-0.179
	c-0.021-0.017-0.043-0.032-0.064-0.049c0.137-0.246,0.274-0.491,0.417-0.733c0.127,0.093,0.257,0.18,0.383,0.275
	c0.223,0.178,0.437,0.368,0.656,0.553c0.239,0.2,0.472,0.401,0.69,0.623c0.465,0.468,0.857,1.019,1.262,1.538
	c-0.047-0.058-0.091-0.118-0.136-0.175c0.24,0.317,0.452,0.646,0.621,1.004c0.17,0.473,0.275,0.962,0.352,1.457
	c0.055,0.49,0.08,0.983,0.102,1.475C23.885,12.414,23.856,12.919,23.799,13.409z M13.709,17.098
	c-0.105-0.183-0.134-0.404-0.078-0.606c0.107-0.393,0.561-0.688,0.967-0.548c0.086,0.029,0.171,0.058,0.259,0.079
	c0.234,0.017,0.474,0.012,0.707-0.012c0.247-0.046,0.479-0.12,0.712-0.21c0.279-0.13,0.546-0.294,0.796-0.476
	c0.156-0.133,0.289-0.289,0.42-0.446c0.09-0.122,0.178-0.245,0.256-0.374c0.088-0.149,0.164-0.303,0.235-0.459
	c0.127-0.333,0.224-0.671,0.312-1.016c0.091-0.361,0.436-0.599,0.794-0.599c0.071,0,0.142,0.009,0.211,0.029
	c0.431,0.118,0.684,0.574,0.57,1.005c-0.116,0.429-0.262,0.834-0.438,1.245c-0.116,0.272-0.252,0.545-0.431,0.782
	c-0.387,0.512-0.815,0.967-1.377,1.289c-0.503,0.286-1.05,0.55-1.622,0.657C15.668,17.5,15.338,17.534,15,17.54
	c-0.279,0.004-0.547-0.038-0.82-0.081C13.99,17.429,13.803,17.257,13.709,17.098z"/>
</svg>